<svg xmlns="http://www.w3.org/2000/svg" version="1.1" xmlns:xlink="http://www.w3.org/1999/xlink" xmlns:svgjs="http://svgjs.dev/svgjs" width="1440" height="560" preserveAspectRatio="none" viewBox="0 0 1440 560"><g mask="url(&quot;#SvgjsMask2730&quot;)" fill="none"><rect width="1440" height="560" x="0" y="0" fill="url(&quot;#SvgjsLinearGradient2731&quot;)"></rect><path d="M611.91 472.46 a161.14 161.14 0 1 0 322.28 0 a161.14 161.14 0 1 0 -322.28 0z" fill="rgba(174, 0, 82, 0.59)" class="triangle-float1"></path><path d="M517.69 440.77 a133.07 133.07 0 1 0 266.14 0 a133.07 133.07 0 1 0 -266.14 0z" fill="rgba(174, 0, 82, 0.59)" class="triangle-float2"></path><path d="M320.86 311.21 a162.19 162.19 0 1 0 324.38 0 a162.19 162.19 0 1 0 -324.38 0z" fill="rgba(174, 0, 82, 0.59)" class="triangle-float2"></path><path d="M110.06 125.62 a172.08 172.08 0 1 0 344.16 0 a172.08 172.08 0 1 0 -344.16 0z" fill="rgba(174, 0, 82, 0.59)" class="triangle-float2"></path><path d="M598.2 388.97 a157.64 157.64 0 1 0 315.28 0 a157.64 157.64 0 1 0 -315.28 0z" fill="rgba(174, 0, 82, 0.59)" class="triangle-float2"></path><path d="M244.49 494.13 a145.22 145.22 0 1 0 290.44 0 a145.22 145.22 0 1 0 -290.44 0z" fill="rgba(174, 0, 82, 0.59)" class="triangle-float2"></path><path d="M601.78 377.37 a158.24 158.24 0 1 0 316.48 0 a158.24 158.24 0 1 0 -316.48 0z" fill="rgba(174, 0, 82, 0.59)" class="triangle-float3"></path><path d="M856.29 534 a114.98 114.98 0 1 0 229.96 0 a114.98 114.98 0 1 0 -229.96 0z" fill="rgba(174, 0, 82, 0.59)" class="triangle-float2"></path><path d="M600.45 44.88 a164.47 164.47 0 1 0 328.94 0 a164.47 164.47 0 1 0 -328.94 0z" fill="rgba(174, 0, 82, 0.59)" class="triangle-float1"></path><path d="M189.74 447.9 a144.28 144.28 0 1 0 288.56 0 a144.28 144.28 0 1 0 -288.56 0z" fill="rgba(174, 0, 82, 0.59)" class="triangle-float2"></path><path d="M71.47 426.55 a183.19 183.19 0 1 0 366.38 0 a183.19 183.19 0 1 0 -366.38 0z" fill="rgba(174, 0, 82, 0.59)" class="triangle-float2"></path><path d="M385.87 85.54 a102.31 102.31 0 1 0 204.62 0 a102.31 102.31 0 1 0 -204.62 0z" fill="rgba(174, 0, 82, 0.59)" class="triangle-float2"></path><path d="M395.69 419.98 a141.7 141.7 0 1 0 283.4 0 a141.7 141.7 0 1 0 -283.4 0z" fill="rgba(174, 0, 82, 0.59)" class="triangle-float1"></path></g><defs><mask id="SvgjsMask2730"><rect width="1440" height="560" fill="#ffffff"></rect></mask><linearGradient x1="50%" y1="0%" x2="50%" y2="100%" gradientUnits="userSpaceOnUse" id="SvgjsLinearGradient2731"><stop stop-color="rgba(0, 0, 0, 1)" offset="0.33"></stop><stop stop-color="rgba(0, 0, 0, 1)" offset="0.48"></stop><stop stop-color="rgba(0, 0, 0, 1)" offset="0.59"></stop><stop stop-color="rgba(174, 0, 82, 1)" offset="1"></stop><stop stop-color="rgba(216, 0, 102, 1)" offset="1"></stop><stop stop-color="rgba(158, 0, 0, 1)" offset="1"></stop></linearGradient><style>
                @keyframes float1 {
                    0%{transform: translate(0, 0)}
                    50%{transform: translate(-10px, 0)}
                    100%{transform: translate(0, 0)}
                }

                .triangle-float1 {
                    animation: float1 5s infinite;
                }

                @keyframes float2 {
                    0%{transform: translate(0, 0)}
                    50%{transform: translate(-5px, -5px)}
                    100%{transform: translate(0, 0)}
                }

                .triangle-float2 {
                    animation: float2 4s infinite;
                }

                @keyframes float3 {
                    0%{transform: translate(0, 0)}
                    50%{transform: translate(0, -10px)}
                    100%{transform: translate(0, 0)}
                }

                .triangle-float3 {
                    animation: float3 6s infinite;
                }
            </style></defs></svg>