<svg xmlns="http://www.w3.org/2000/svg" version="1.1" xmlns:xlink="http://www.w3.org/1999/xlink" xmlns:svgjs="http://svgjs.dev/svgjs" width="1440" height="560" preserveAspectRatio="none" viewBox="0 0 1440 560"><g mask="url(&quot;#SvgjsMask1870&quot;)" fill="none"><rect width="1440" height="560" x="0" y="0" fill="url(&quot;#SvgjsLinearGradient1871&quot;)"></rect><path d="M0 0L299.11 0L0 194.65z" fill="rgba(255, 255, 255, .1)"></path><path d="M0 194.65L299.11 0L553.4200000000001 0L0 272.82z" fill="rgba(255, 255, 255, .075)"></path><path d="M0 272.82L553.4200000000001 0L874.7900000000001 0L0 416.65z" fill="rgba(255, 255, 255, .05)"></path><path d="M0 416.65L874.7900000000001 0L1174.23 0L0 492.62z" fill="rgba(255, 255, 255, .025)"></path><path d="M1440 560L1206.46 560L1440 369.12z" fill="rgba(0, 0, 0, .1)"></path><path d="M1440 369.12L1206.46 560L947.19 560L1440 272.87z" fill="rgba(0, 0, 0, .075)"></path><path d="M1440 272.87L947.19 560L629.4100000000001 560L1440 181.10000000000002z" fill="rgba(0, 0, 0, .05)"></path><path d="M1440 181.10000000000002L629.4100000000001 560L378.3700000000001 560L1440 89.69000000000003z" fill="rgba(0, 0, 0, .025)"></path></g><defs><mask id="SvgjsMask1870"><rect width="1440" height="560" fill="#ffffff"></rect></mask><linearGradient x1="15.28%" y1="-39.29%" x2="84.72%" y2="139.29%" gradientUnits="userSpaceOnUse" id="SvgjsLinearGradient1871"><stop stop-color="rgba(54, 8, 8, 1)" offset="0"></stop><stop stop-color="rgba(73, 6, 6, 0.54)" offset="1"></stop></linearGradient></defs></svg>