<svg xmlns="http://www.w3.org/2000/svg" version="1.1" xmlns:xlink="http://www.w3.org/1999/xlink" xmlns:svgjs="http://svgjs.dev/svgjs" width="1440" height="560" preserveAspectRatio="none" viewBox="0 0 1440 560"><g mask="url(&quot;#SvgjsMask1411&quot;)" fill="none"><g transform="translate(43.2, -11.2)"><path d="M342 280 a8 8 0 1 0 16 0 a8 8 0 1 0 -16 0zM342 260 a8 8 0 1 0 16 0 a8 8 0 1 0 -16 0zM342 300 a8 8 0 1 0 16 0 a8 8 0 1 0 -16 0zM342 240 a8 8 0 1 0 16 0 a8 8 0 1 0 -16 0zM342 320 a8 8 0 1 0 16 0 a8 8 0 1 0 -16 0zM342 220 a8 8 0 1 0 16 0 a8 8 0 1 0 -16 0zM342 340 a8 8 0 1 0 16 0 a8 8 0 1 0 -16 0z" fill="url(&quot;#SvgjsLinearGradient1412&quot;)"></path><path d="M362 280 a8 8 0 1 0 16 0 a8 8 0 1 0 -16 0zM362 260 a8 8 0 1 0 16 0 a8 8 0 1 0 -16 0zM362 300 a8 8 0 1 0 16 0 a8 8 0 1 0 -16 0zM362 240 a8 8 0 1 0 16 0 a8 8 0 1 0 -16 0zM362 320 a8 8 0 1 0 16 0 a8 8 0 1 0 -16 0zM362 220 a8 8 0 1 0 16 0 a8 8 0 1 0 -16 0zM362 340 a8 8 0 1 0 16 0 a8 8 0 1 0 -16 0zM362 200 a8 8 0 1 0 16 0 a8 8 0 1 0 -16 0zM362 360 a8 8 0 1 0 16 0 a8 8 0 1 0 -16 0zM362 180 a8 8 0 1 0 16 0 a8 8 0 1 0 -16 0zM362 380 a8 8 0 1 0 16 0 a8 8 0 1 0 -16 0z" fill="url(&quot;#SvgjsLinearGradient1412&quot;)"></path><path d="M382 280 a8 8 0 1 0 16 0 a8 8 0 1 0 -16 0zM382 260 a8 8 0 1 0 16 0 a8 8 0 1 0 -16 0zM382 300 a8 8 0 1 0 16 0 a8 8 0 1 0 -16 0zM382 240 a8 8 0 1 0 16 0 a8 8 0 1 0 -16 0zM382 320 a8 8 0 1 0 16 0 a8 8 0 1 0 -16 0zM382 220 a8 8 0 1 0 16 0 a8 8 0 1 0 -16 0zM382 340 a8 8 0 1 0 16 0 a8 8 0 1 0 -16 0zM382 200 a8 8 0 1 0 16 0 a8 8 0 1 0 -16 0zM382 360 a8 8 0 1 0 16 0 a8 8 0 1 0 -16 0zM382 180 a8 8 0 1 0 16 0 a8 8 0 1 0 -16 0zM382 380 a8 8 0 1 0 16 0 a8 8 0 1 0 -16 0zM382 160 a8 8 0 1 0 16 0 a8 8 0 1 0 -16 0zM382 400 a8 8 0 1 0 16 0 a8 8 0 1 0 -16 0zM382 140 a8 8 0 1 0 16 0 a8 8 0 1 0 -16 0zM382 420 a8 8 0 1 0 16 0 a8 8 0 1 0 -16 0z" fill="url(&quot;#SvgjsLinearGradient1412&quot;)"></path><path d="M402 280 a8 8 0 1 0 16 0 a8 8 0 1 0 -16 0zM402 260 a8 8 0 1 0 16 0 a8 8 0 1 0 -16 0zM402 300 a8 8 0 1 0 16 0 a8 8 0 1 0 -16 0zM402 240 a8 8 0 1 0 16 0 a8 8 0 1 0 -16 0zM402 320 a8 8 0 1 0 16 0 a8 8 0 1 0 -16 0zM402 220 a8 8 0 1 0 16 0 a8 8 0 1 0 -16 0zM402 340 a8 8 0 1 0 16 0 a8 8 0 1 0 -16 0zM402 200 a8 8 0 1 0 16 0 a8 8 0 1 0 -16 0zM402 360 a8 8 0 1 0 16 0 a8 8 0 1 0 -16 0z" fill="url(&quot;#SvgjsLinearGradient1412&quot;)"></path><path d="M422 280 a8 8 0 1 0 16 0 a8 8 0 1 0 -16 0zM422 260 a8 8 0 1 0 16 0 a8 8 0 1 0 -16 0zM422 300 a8 8 0 1 0 16 0 a8 8 0 1 0 -16 0zM422 240 a8 8 0 1 0 16 0 a8 8 0 1 0 -16 0zM422 320 a8 8 0 1 0 16 0 a8 8 0 1 0 -16 0zM422 220 a8 8 0 1 0 16 0 a8 8 0 1 0 -16 0zM422 340 a8 8 0 1 0 16 0 a8 8 0 1 0 -16 0zM422 200 a8 8 0 1 0 16 0 a8 8 0 1 0 -16 0zM422 360 a8 8 0 1 0 16 0 a8 8 0 1 0 -16 0zM422 180 a8 8 0 1 0 16 0 a8 8 0 1 0 -16 0zM422 380 a8 8 0 1 0 16 0 a8 8 0 1 0 -16 0z" fill="url(&quot;#SvgjsLinearGradient1412&quot;)"></path><path d="M442 280 a8 8 0 1 0 16 0 a8 8 0 1 0 -16 0zM442 260 a8 8 0 1 0 16 0 a8 8 0 1 0 -16 0zM442 300 a8 8 0 1 0 16 0 a8 8 0 1 0 -16 0zM442 240 a8 8 0 1 0 16 0 a8 8 0 1 0 -16 0zM442 320 a8 8 0 1 0 16 0 a8 8 0 1 0 -16 0zM442 220 a8 8 0 1 0 16 0 a8 8 0 1 0 -16 0zM442 340 a8 8 0 1 0 16 0 a8 8 0 1 0 -16 0z" fill="url(&quot;#SvgjsLinearGradient1412&quot;)"></path><path d="M462 280 a8 8 0 1 0 16 0 a8 8 0 1 0 -16 0zM462 260 a8 8 0 1 0 16 0 a8 8 0 1 0 -16 0zM462 300 a8 8 0 1 0 16 0 a8 8 0 1 0 -16 0zM462 240 a8 8 0 1 0 16 0 a8 8 0 1 0 -16 0zM462 320 a8 8 0 1 0 16 0 a8 8 0 1 0 -16 0z" fill="url(&quot;#SvgjsLinearGradient1412&quot;)"></path><path d="M482 280 a8 8 0 1 0 16 0 a8 8 0 1 0 -16 0zM482 260 a8 8 0 1 0 16 0 a8 8 0 1 0 -16 0zM482 300 a8 8 0 1 0 16 0 a8 8 0 1 0 -16 0zM482 240 a8 8 0 1 0 16 0 a8 8 0 1 0 -16 0zM482 320 a8 8 0 1 0 16 0 a8 8 0 1 0 -16 0zM482 220 a8 8 0 1 0 16 0 a8 8 0 1 0 -16 0zM482 340 a8 8 0 1 0 16 0 a8 8 0 1 0 -16 0zM482 200 a8 8 0 1 0 16 0 a8 8 0 1 0 -16 0zM482 360 a8 8 0 1 0 16 0 a8 8 0 1 0 -16 0zM482 180 a8 8 0 1 0 16 0 a8 8 0 1 0 -16 0zM482 380 a8 8 0 1 0 16 0 a8 8 0 1 0 -16 0z" fill="url(&quot;#SvgjsLinearGradient1412&quot;)"></path><path d="M502 280 a8 8 0 1 0 16 0 a8 8 0 1 0 -16 0zM502 260 a8 8 0 1 0 16 0 a8 8 0 1 0 -16 0zM502 300 a8 8 0 1 0 16 0 a8 8 0 1 0 -16 0zM502 240 a8 8 0 1 0 16 0 a8 8 0 1 0 -16 0zM502 320 a8 8 0 1 0 16 0 a8 8 0 1 0 -16 0z" fill="url(&quot;#SvgjsLinearGradient1412&quot;)"></path><path d="M522 280 a8 8 0 1 0 16 0 a8 8 0 1 0 -16 0zM522 260 a8 8 0 1 0 16 0 a8 8 0 1 0 -16 0zM522 300 a8 8 0 1 0 16 0 a8 8 0 1 0 -16 0z" fill="url(&quot;#SvgjsLinearGradient1412&quot;)"></path><path d="M542 280 a8 8 0 1 0 16 0 a8 8 0 1 0 -16 0zM542 260 a8 8 0 1 0 16 0 a8 8 0 1 0 -16 0zM542 300 a8 8 0 1 0 16 0 a8 8 0 1 0 -16 0zM542 240 a8 8 0 1 0 16 0 a8 8 0 1 0 -16 0zM542 320 a8 8 0 1 0 16 0 a8 8 0 1 0 -16 0zM542 220 a8 8 0 1 0 16 0 a8 8 0 1 0 -16 0zM542 340 a8 8 0 1 0 16 0 a8 8 0 1 0 -16 0zM542 200 a8 8 0 1 0 16 0 a8 8 0 1 0 -16 0zM542 360 a8 8 0 1 0 16 0 a8 8 0 1 0 -16 0zM542 180 a8 8 0 1 0 16 0 a8 8 0 1 0 -16 0zM542 380 a8 8 0 1 0 16 0 a8 8 0 1 0 -16 0zM542 160 a8 8 0 1 0 16 0 a8 8 0 1 0 -16 0zM542 400 a8 8 0 1 0 16 0 a8 8 0 1 0 -16 0zM542 140 a8 8 0 1 0 16 0 a8 8 0 1 0 -16 0zM542 420 a8 8 0 1 0 16 0 a8 8 0 1 0 -16 0z" fill="url(&quot;#SvgjsLinearGradient1412&quot;)"></path><path d="M562 280 a8 8 0 1 0 16 0 a8 8 0 1 0 -16 0zM562 260 a8 8 0 1 0 16 0 a8 8 0 1 0 -16 0zM562 300 a8 8 0 1 0 16 0 a8 8 0 1 0 -16 0zM562 240 a8 8 0 1 0 16 0 a8 8 0 1 0 -16 0zM562 320 a8 8 0 1 0 16 0 a8 8 0 1 0 -16 0zM562 220 a8 8 0 1 0 16 0 a8 8 0 1 0 -16 0zM562 340 a8 8 0 1 0 16 0 a8 8 0 1 0 -16 0zM562 200 a8 8 0 1 0 16 0 a8 8 0 1 0 -16 0zM562 360 a8 8 0 1 0 16 0 a8 8 0 1 0 -16 0zM562 180 a8 8 0 1 0 16 0 a8 8 0 1 0 -16 0zM562 380 a8 8 0 1 0 16 0 a8 8 0 1 0 -16 0zM562 160 a8 8 0 1 0 16 0 a8 8 0 1 0 -16 0zM562 400 a8 8 0 1 0 16 0 a8 8 0 1 0 -16 0z" fill="url(&quot;#SvgjsLinearGradient1412&quot;)"></path><path d="M582 280 a8 8 0 1 0 16 0 a8 8 0 1 0 -16 0zM582 260 a8 8 0 1 0 16 0 a8 8 0 1 0 -16 0zM582 300 a8 8 0 1 0 16 0 a8 8 0 1 0 -16 0zM582 240 a8 8 0 1 0 16 0 a8 8 0 1 0 -16 0zM582 320 a8 8 0 1 0 16 0 a8 8 0 1 0 -16 0zM582 220 a8 8 0 1 0 16 0 a8 8 0 1 0 -16 0zM582 340 a8 8 0 1 0 16 0 a8 8 0 1 0 -16 0zM582 200 a8 8 0 1 0 16 0 a8 8 0 1 0 -16 0zM582 360 a8 8 0 1 0 16 0 a8 8 0 1 0 -16 0zM582 180 a8 8 0 1 0 16 0 a8 8 0 1 0 -16 0zM582 380 a8 8 0 1 0 16 0 a8 8 0 1 0 -16 0zM582 160 a8 8 0 1 0 16 0 a8 8 0 1 0 -16 0zM582 400 a8 8 0 1 0 16 0 a8 8 0 1 0 -16 0zM582 140 a8 8 0 1 0 16 0 a8 8 0 1 0 -16 0zM582 420 a8 8 0 1 0 16 0 a8 8 0 1 0 -16 0z" fill="url(&quot;#SvgjsLinearGradient1412&quot;)"></path><path d="M602 280 a8 8 0 1 0 16 0 a8 8 0 1 0 -16 0zM602 260 a8 8 0 1 0 16 0 a8 8 0 1 0 -16 0zM602 300 a8 8 0 1 0 16 0 a8 8 0 1 0 -16 0z" fill="url(&quot;#SvgjsLinearGradient1412&quot;)"></path><path d="M622 280 a8 8 0 1 0 16 0 a8 8 0 1 0 -16 0zM622 260 a8 8 0 1 0 16 0 a8 8 0 1 0 -16 0zM622 300 a8 8 0 1 0 16 0 a8 8 0 1 0 -16 0zM622 240 a8 8 0 1 0 16 0 a8 8 0 1 0 -16 0zM622 320 a8 8 0 1 0 16 0 a8 8 0 1 0 -16 0z" fill="url(&quot;#SvgjsLinearGradient1412&quot;)"></path><path d="M642 280 a8 8 0 1 0 16 0 a8 8 0 1 0 -16 0zM642 260 a8 8 0 1 0 16 0 a8 8 0 1 0 -16 0zM642 300 a8 8 0 1 0 16 0 a8 8 0 1 0 -16 0z" fill="url(&quot;#SvgjsLinearGradient1412&quot;)"></path><path d="M662 280 a8 8 0 1 0 16 0 a8 8 0 1 0 -16 0zM662 260 a8 8 0 1 0 16 0 a8 8 0 1 0 -16 0zM662 300 a8 8 0 1 0 16 0 a8 8 0 1 0 -16 0zM662 240 a8 8 0 1 0 16 0 a8 8 0 1 0 -16 0zM662 320 a8 8 0 1 0 16 0 a8 8 0 1 0 -16 0zM662 220 a8 8 0 1 0 16 0 a8 8 0 1 0 -16 0zM662 340 a8 8 0 1 0 16 0 a8 8 0 1 0 -16 0z" fill="url(&quot;#SvgjsLinearGradient1412&quot;)"></path><path d="M682 280 a8 8 0 1 0 16 0 a8 8 0 1 0 -16 0zM682 260 a8 8 0 1 0 16 0 a8 8 0 1 0 -16 0zM682 300 a8 8 0 1 0 16 0 a8 8 0 1 0 -16 0zM682 240 a8 8 0 1 0 16 0 a8 8 0 1 0 -16 0zM682 320 a8 8 0 1 0 16 0 a8 8 0 1 0 -16 0zM682 220 a8 8 0 1 0 16 0 a8 8 0 1 0 -16 0zM682 340 a8 8 0 1 0 16 0 a8 8 0 1 0 -16 0zM682 200 a8 8 0 1 0 16 0 a8 8 0 1 0 -16 0zM682 360 a8 8 0 1 0 16 0 a8 8 0 1 0 -16 0z" fill="url(&quot;#SvgjsLinearGradient1412&quot;)"></path><path d="M702 280 a8 8 0 1 0 16 0 a8 8 0 1 0 -16 0zM702 260 a8 8 0 1 0 16 0 a8 8 0 1 0 -16 0zM702 300 a8 8 0 1 0 16 0 a8 8 0 1 0 -16 0z" fill="url(&quot;#SvgjsLinearGradient1412&quot;)"></path><path d="M722 280 a8 8 0 1 0 16 0 a8 8 0 1 0 -16 0zM722 260 a8 8 0 1 0 16 0 a8 8 0 1 0 -16 0zM722 300 a8 8 0 1 0 16 0 a8 8 0 1 0 -16 0zM722 240 a8 8 0 1 0 16 0 a8 8 0 1 0 -16 0zM722 320 a8 8 0 1 0 16 0 a8 8 0 1 0 -16 0zM722 220 a8 8 0 1 0 16 0 a8 8 0 1 0 -16 0zM722 340 a8 8 0 1 0 16 0 a8 8 0 1 0 -16 0z" fill="url(&quot;#SvgjsLinearGradient1412&quot;)"></path><path d="M742 280 a8 8 0 1 0 16 0 a8 8 0 1 0 -16 0zM742 260 a8 8 0 1 0 16 0 a8 8 0 1 0 -16 0zM742 300 a8 8 0 1 0 16 0 a8 8 0 1 0 -16 0zM742 240 a8 8 0 1 0 16 0 a8 8 0 1 0 -16 0zM742 320 a8 8 0 1 0 16 0 a8 8 0 1 0 -16 0z" fill="url(&quot;#SvgjsLinearGradient1412&quot;)"></path><path d="M762 280 a8 8 0 1 0 16 0 a8 8 0 1 0 -16 0zM762 260 a8 8 0 1 0 16 0 a8 8 0 1 0 -16 0zM762 300 a8 8 0 1 0 16 0 a8 8 0 1 0 -16 0z" fill="url(&quot;#SvgjsLinearGradient1412&quot;)"></path><path d="M782 280 a8 8 0 1 0 16 0 a8 8 0 1 0 -16 0zM782 260 a8 8 0 1 0 16 0 a8 8 0 1 0 -16 0zM782 300 a8 8 0 1 0 16 0 a8 8 0 1 0 -16 0zM782 240 a8 8 0 1 0 16 0 a8 8 0 1 0 -16 0zM782 320 a8 8 0 1 0 16 0 a8 8 0 1 0 -16 0zM782 220 a8 8 0 1 0 16 0 a8 8 0 1 0 -16 0zM782 340 a8 8 0 1 0 16 0 a8 8 0 1 0 -16 0z" fill="url(&quot;#SvgjsLinearGradient1412&quot;)"></path><path d="M802 280 a8 8 0 1 0 16 0 a8 8 0 1 0 -16 0zM802 260 a8 8 0 1 0 16 0 a8 8 0 1 0 -16 0zM802 300 a8 8 0 1 0 16 0 a8 8 0 1 0 -16 0zM802 240 a8 8 0 1 0 16 0 a8 8 0 1 0 -16 0zM802 320 a8 8 0 1 0 16 0 a8 8 0 1 0 -16 0zM802 220 a8 8 0 1 0 16 0 a8 8 0 1 0 -16 0zM802 340 a8 8 0 1 0 16 0 a8 8 0 1 0 -16 0zM802 200 a8 8 0 1 0 16 0 a8 8 0 1 0 -16 0zM802 360 a8 8 0 1 0 16 0 a8 8 0 1 0 -16 0zM802 180 a8 8 0 1 0 16 0 a8 8 0 1 0 -16 0zM802 380 a8 8 0 1 0 16 0 a8 8 0 1 0 -16 0z" fill="url(&quot;#SvgjsLinearGradient1412&quot;)"></path><path d="M822 280 a8 8 0 1 0 16 0 a8 8 0 1 0 -16 0zM822 260 a8 8 0 1 0 16 0 a8 8 0 1 0 -16 0zM822 300 a8 8 0 1 0 16 0 a8 8 0 1 0 -16 0zM822 240 a8 8 0 1 0 16 0 a8 8 0 1 0 -16 0zM822 320 a8 8 0 1 0 16 0 a8 8 0 1 0 -16 0z" fill="url(&quot;#SvgjsLinearGradient1412&quot;)"></path><path d="M842 280 a8 8 0 1 0 16 0 a8 8 0 1 0 -16 0zM842 260 a8 8 0 1 0 16 0 a8 8 0 1 0 -16 0zM842 300 a8 8 0 1 0 16 0 a8 8 0 1 0 -16 0zM842 240 a8 8 0 1 0 16 0 a8 8 0 1 0 -16 0zM842 320 a8 8 0 1 0 16 0 a8 8 0 1 0 -16 0z" fill="url(&quot;#SvgjsLinearGradient1412&quot;)"></path><path d="M862 280 a8 8 0 1 0 16 0 a8 8 0 1 0 -16 0zM862 260 a8 8 0 1 0 16 0 a8 8 0 1 0 -16 0zM862 300 a8 8 0 1 0 16 0 a8 8 0 1 0 -16 0zM862 240 a8 8 0 1 0 16 0 a8 8 0 1 0 -16 0zM862 320 a8 8 0 1 0 16 0 a8 8 0 1 0 -16 0z" fill="url(&quot;#SvgjsLinearGradient1412&quot;)"></path><path d="M882 280 a8 8 0 1 0 16 0 a8 8 0 1 0 -16 0zM882 260 a8 8 0 1 0 16 0 a8 8 0 1 0 -16 0zM882 300 a8 8 0 1 0 16 0 a8 8 0 1 0 -16 0zM882 240 a8 8 0 1 0 16 0 a8 8 0 1 0 -16 0zM882 320 a8 8 0 1 0 16 0 a8 8 0 1 0 -16 0zM882 220 a8 8 0 1 0 16 0 a8 8 0 1 0 -16 0zM882 340 a8 8 0 1 0 16 0 a8 8 0 1 0 -16 0z" fill="url(&quot;#SvgjsLinearGradient1412&quot;)"></path><path d="M902 280 a8 8 0 1 0 16 0 a8 8 0 1 0 -16 0zM902 260 a8 8 0 1 0 16 0 a8 8 0 1 0 -16 0zM902 300 a8 8 0 1 0 16 0 a8 8 0 1 0 -16 0zM902 240 a8 8 0 1 0 16 0 a8 8 0 1 0 -16 0zM902 320 a8 8 0 1 0 16 0 a8 8 0 1 0 -16 0zM902 220 a8 8 0 1 0 16 0 a8 8 0 1 0 -16 0zM902 340 a8 8 0 1 0 16 0 a8 8 0 1 0 -16 0zM902 200 a8 8 0 1 0 16 0 a8 8 0 1 0 -16 0zM902 360 a8 8 0 1 0 16 0 a8 8 0 1 0 -16 0zM902 180 a8 8 0 1 0 16 0 a8 8 0 1 0 -16 0zM902 380 a8 8 0 1 0 16 0 a8 8 0 1 0 -16 0z" fill="url(&quot;#SvgjsLinearGradient1412&quot;)"></path><path d="M922 280 a8 8 0 1 0 16 0 a8 8 0 1 0 -16 0zM922 260 a8 8 0 1 0 16 0 a8 8 0 1 0 -16 0zM922 300 a8 8 0 1 0 16 0 a8 8 0 1 0 -16 0zM922 240 a8 8 0 1 0 16 0 a8 8 0 1 0 -16 0zM922 320 a8 8 0 1 0 16 0 a8 8 0 1 0 -16 0zM922 220 a8 8 0 1 0 16 0 a8 8 0 1 0 -16 0zM922 340 a8 8 0 1 0 16 0 a8 8 0 1 0 -16 0z" fill="url(&quot;#SvgjsLinearGradient1412&quot;)"></path><path d="M942 280 a8 8 0 1 0 16 0 a8 8 0 1 0 -16 0zM942 260 a8 8 0 1 0 16 0 a8 8 0 1 0 -16 0zM942 300 a8 8 0 1 0 16 0 a8 8 0 1 0 -16 0zM942 240 a8 8 0 1 0 16 0 a8 8 0 1 0 -16 0zM942 320 a8 8 0 1 0 16 0 a8 8 0 1 0 -16 0zM942 220 a8 8 0 1 0 16 0 a8 8 0 1 0 -16 0zM942 340 a8 8 0 1 0 16 0 a8 8 0 1 0 -16 0zM942 200 a8 8 0 1 0 16 0 a8 8 0 1 0 -16 0zM942 360 a8 8 0 1 0 16 0 a8 8 0 1 0 -16 0zM942 180 a8 8 0 1 0 16 0 a8 8 0 1 0 -16 0zM942 380 a8 8 0 1 0 16 0 a8 8 0 1 0 -16 0z" fill="url(&quot;#SvgjsLinearGradient1412&quot;)"></path><path d="M962 280 a8 8 0 1 0 16 0 a8 8 0 1 0 -16 0zM962 260 a8 8 0 1 0 16 0 a8 8 0 1 0 -16 0zM962 300 a8 8 0 1 0 16 0 a8 8 0 1 0 -16 0zM962 240 a8 8 0 1 0 16 0 a8 8 0 1 0 -16 0zM962 320 a8 8 0 1 0 16 0 a8 8 0 1 0 -16 0zM962 220 a8 8 0 1 0 16 0 a8 8 0 1 0 -16 0zM962 340 a8 8 0 1 0 16 0 a8 8 0 1 0 -16 0zM962 200 a8 8 0 1 0 16 0 a8 8 0 1 0 -16 0zM962 360 a8 8 0 1 0 16 0 a8 8 0 1 0 -16 0zM962 180 a8 8 0 1 0 16 0 a8 8 0 1 0 -16 0zM962 380 a8 8 0 1 0 16 0 a8 8 0 1 0 -16 0zM962 160 a8 8 0 1 0 16 0 a8 8 0 1 0 -16 0zM962 400 a8 8 0 1 0 16 0 a8 8 0 1 0 -16 0zM962 140 a8 8 0 1 0 16 0 a8 8 0 1 0 -16 0zM962 420 a8 8 0 1 0 16 0 a8 8 0 1 0 -16 0z" fill="url(&quot;#SvgjsLinearGradient1412&quot;)"></path><path d="M982 280 a8 8 0 1 0 16 0 a8 8 0 1 0 -16 0zM982 260 a8 8 0 1 0 16 0 a8 8 0 1 0 -16 0zM982 300 a8 8 0 1 0 16 0 a8 8 0 1 0 -16 0z" fill="url(&quot;#SvgjsLinearGradient1412&quot;)"></path><path d="M1002 280 a8 8 0 1 0 16 0 a8 8 0 1 0 -16 0zM1002 260 a8 8 0 1 0 16 0 a8 8 0 1 0 -16 0zM1002 300 a8 8 0 1 0 16 0 a8 8 0 1 0 -16 0zM1002 240 a8 8 0 1 0 16 0 a8 8 0 1 0 -16 0zM1002 320 a8 8 0 1 0 16 0 a8 8 0 1 0 -16 0zM1002 220 a8 8 0 1 0 16 0 a8 8 0 1 0 -16 0zM1002 340 a8 8 0 1 0 16 0 a8 8 0 1 0 -16 0zM1002 200 a8 8 0 1 0 16 0 a8 8 0 1 0 -16 0zM1002 360 a8 8 0 1 0 16 0 a8 8 0 1 0 -16 0zM1002 180 a8 8 0 1 0 16 0 a8 8 0 1 0 -16 0zM1002 380 a8 8 0 1 0 16 0 a8 8 0 1 0 -16 0z" fill="url(&quot;#SvgjsLinearGradient1412&quot;)"></path><path d="M1022 280 a8 8 0 1 0 16 0 a8 8 0 1 0 -16 0zM1022 260 a8 8 0 1 0 16 0 a8 8 0 1 0 -16 0zM1022 300 a8 8 0 1 0 16 0 a8 8 0 1 0 -16 0zM1022 240 a8 8 0 1 0 16 0 a8 8 0 1 0 -16 0zM1022 320 a8 8 0 1 0 16 0 a8 8 0 1 0 -16 0zM1022 220 a8 8 0 1 0 16 0 a8 8 0 1 0 -16 0zM1022 340 a8 8 0 1 0 16 0 a8 8 0 1 0 -16 0zM1022 200 a8 8 0 1 0 16 0 a8 8 0 1 0 -16 0zM1022 360 a8 8 0 1 0 16 0 a8 8 0 1 0 -16 0zM1022 180 a8 8 0 1 0 16 0 a8 8 0 1 0 -16 0zM1022 380 a8 8 0 1 0 16 0 a8 8 0 1 0 -16 0z" fill="url(&quot;#SvgjsLinearGradient1412&quot;)"></path><path d="M1042 280 a8 8 0 1 0 16 0 a8 8 0 1 0 -16 0zM1042 260 a8 8 0 1 0 16 0 a8 8 0 1 0 -16 0zM1042 300 a8 8 0 1 0 16 0 a8 8 0 1 0 -16 0zM1042 240 a8 8 0 1 0 16 0 a8 8 0 1 0 -16 0zM1042 320 a8 8 0 1 0 16 0 a8 8 0 1 0 -16 0zM1042 220 a8 8 0 1 0 16 0 a8 8 0 1 0 -16 0zM1042 340 a8 8 0 1 0 16 0 a8 8 0 1 0 -16 0zM1042 200 a8 8 0 1 0 16 0 a8 8 0 1 0 -16 0zM1042 360 a8 8 0 1 0 16 0 a8 8 0 1 0 -16 0zM1042 180 a8 8 0 1 0 16 0 a8 8 0 1 0 -16 0zM1042 380 a8 8 0 1 0 16 0 a8 8 0 1 0 -16 0zM1042 160 a8 8 0 1 0 16 0 a8 8 0 1 0 -16 0zM1042 400 a8 8 0 1 0 16 0 a8 8 0 1 0 -16 0z" fill="url(&quot;#SvgjsLinearGradient1412&quot;)"></path><path d="M1062 280 a8 8 0 1 0 16 0 a8 8 0 1 0 -16 0zM1062 260 a8 8 0 1 0 16 0 a8 8 0 1 0 -16 0zM1062 300 a8 8 0 1 0 16 0 a8 8 0 1 0 -16 0zM1062 240 a8 8 0 1 0 16 0 a8 8 0 1 0 -16 0zM1062 320 a8 8 0 1 0 16 0 a8 8 0 1 0 -16 0zM1062 220 a8 8 0 1 0 16 0 a8 8 0 1 0 -16 0zM1062 340 a8 8 0 1 0 16 0 a8 8 0 1 0 -16 0zM1062 200 a8 8 0 1 0 16 0 a8 8 0 1 0 -16 0zM1062 360 a8 8 0 1 0 16 0 a8 8 0 1 0 -16 0zM1062 180 a8 8 0 1 0 16 0 a8 8 0 1 0 -16 0zM1062 380 a8 8 0 1 0 16 0 a8 8 0 1 0 -16 0zM1062 160 a8 8 0 1 0 16 0 a8 8 0 1 0 -16 0zM1062 400 a8 8 0 1 0 16 0 a8 8 0 1 0 -16 0z" fill="url(&quot;#SvgjsLinearGradient1412&quot;)"></path><path d="M1082 280 a8 8 0 1 0 16 0 a8 8 0 1 0 -16 0zM1082 260 a8 8 0 1 0 16 0 a8 8 0 1 0 -16 0zM1082 300 a8 8 0 1 0 16 0 a8 8 0 1 0 -16 0zM1082 240 a8 8 0 1 0 16 0 a8 8 0 1 0 -16 0zM1082 320 a8 8 0 1 0 16 0 a8 8 0 1 0 -16 0zM1082 220 a8 8 0 1 0 16 0 a8 8 0 1 0 -16 0zM1082 340 a8 8 0 1 0 16 0 a8 8 0 1 0 -16 0zM1082 200 a8 8 0 1 0 16 0 a8 8 0 1 0 -16 0zM1082 360 a8 8 0 1 0 16 0 a8 8 0 1 0 -16 0zM1082 180 a8 8 0 1 0 16 0 a8 8 0 1 0 -16 0zM1082 380 a8 8 0 1 0 16 0 a8 8 0 1 0 -16 0zM1082 160 a8 8 0 1 0 16 0 a8 8 0 1 0 -16 0zM1082 400 a8 8 0 1 0 16 0 a8 8 0 1 0 -16 0z" fill="url(&quot;#SvgjsLinearGradient1412&quot;)"></path></g></g><defs><mask id="SvgjsMask1411"><rect width="1440" height="560" fill="#ffffff"></rect></mask><linearGradient x1="338.4" y1="280" x2="1101.6" y2="280" gradientUnits="userSpaceOnUse" id="SvgjsLinearGradient1412"><stop stop-color="#3a7cc3" offset="0"></stop><stop stop-color="rgba(179, 17, 44, 1)" offset="1"></stop></linearGradient><path d="M-8 0 a8 8 0 1 0 16 0 a8 8 0 1 0 -16 0zM-8 20 a8 8 0 1 0 16 0 a8 8 0 1 0 -16 0zM-8 -20 a8 8 0 1 0 16 0 a8 8 0 1 0 -16 0z"></path><path d="M-8 0 a8 8 0 1 0 16 0 a8 8 0 1 0 -16 0zM-8 20 a8 8 0 1 0 16 0 a8 8 0 1 0 -16 0zM-8 -20 a8 8 0 1 0 16 0 a8 8 0 1 0 -16 0zM-8 40 a8 8 0 1 0 16 0 a8 8 0 1 0 -16 0zM-8 -40 a8 8 0 1 0 16 0 a8 8 0 1 0 -16 0z"></path><path d="M-8 0 a8 8 0 1 0 16 0 a8 8 0 1 0 -16 0zM-8 20 a8 8 0 1 0 16 0 a8 8 0 1 0 -16 0zM-8 -20 a8 8 0 1 0 16 0 a8 8 0 1 0 -16 0zM-8 40 a8 8 0 1 0 16 0 a8 8 0 1 0 -16 0zM-8 -40 a8 8 0 1 0 16 0 a8 8 0 1 0 -16 0zM-8 60 a8 8 0 1 0 16 0 a8 8 0 1 0 -16 0zM-8 -60 a8 8 0 1 0 16 0 a8 8 0 1 0 -16 0z"></path><path d="M-8 0 a8 8 0 1 0 16 0 a8 8 0 1 0 -16 0zM-8 20 a8 8 0 1 0 16 0 a8 8 0 1 0 -16 0zM-8 -20 a8 8 0 1 0 16 0 a8 8 0 1 0 -16 0zM-8 40 a8 8 0 1 0 16 0 a8 8 0 1 0 -16 0zM-8 -40 a8 8 0 1 0 16 0 a8 8 0 1 0 -16 0zM-8 60 a8 8 0 1 0 16 0 a8 8 0 1 0 -16 0zM-8 -60 a8 8 0 1 0 16 0 a8 8 0 1 0 -16 0zM-8 80 a8 8 0 1 0 16 0 a8 8 0 1 0 -16 0zM-8 -80 a8 8 0 1 0 16 0 a8 8 0 1 0 -16 0z"></path><path d="M-8 0 a8 8 0 1 0 16 0 a8 8 0 1 0 -16 0zM-8 20 a8 8 0 1 0 16 0 a8 8 0 1 0 -16 0zM-8 -20 a8 8 0 1 0 16 0 a8 8 0 1 0 -16 0zM-8 40 a8 8 0 1 0 16 0 a8 8 0 1 0 -16 0zM-8 -40 a8 8 0 1 0 16 0 a8 8 0 1 0 -16 0zM-8 60 a8 8 0 1 0 16 0 a8 8 0 1 0 -16 0zM-8 -60 a8 8 0 1 0 16 0 a8 8 0 1 0 -16 0zM-8 80 a8 8 0 1 0 16 0 a8 8 0 1 0 -16 0zM-8 -80 a8 8 0 1 0 16 0 a8 8 0 1 0 -16 0zM-8 100 a8 8 0 1 0 16 0 a8 8 0 1 0 -16 0zM-8 -100 a8 8 0 1 0 16 0 a8 8 0 1 0 -16 0z"></path><path d="M-8 0 a8 8 0 1 0 16 0 a8 8 0 1 0 -16 0zM-8 20 a8 8 0 1 0 16 0 a8 8 0 1 0 -16 0zM-8 -20 a8 8 0 1 0 16 0 a8 8 0 1 0 -16 0zM-8 40 a8 8 0 1 0 16 0 a8 8 0 1 0 -16 0zM-8 -40 a8 8 0 1 0 16 0 a8 8 0 1 0 -16 0zM-8 60 a8 8 0 1 0 16 0 a8 8 0 1 0 -16 0zM-8 -60 a8 8 0 1 0 16 0 a8 8 0 1 0 -16 0zM-8 80 a8 8 0 1 0 16 0 a8 8 0 1 0 -16 0zM-8 -80 a8 8 0 1 0 16 0 a8 8 0 1 0 -16 0zM-8 100 a8 8 0 1 0 16 0 a8 8 0 1 0 -16 0zM-8 -100 a8 8 0 1 0 16 0 a8 8 0 1 0 -16 0zM-8 120 a8 8 0 1 0 16 0 a8 8 0 1 0 -16 0zM-8 -120 a8 8 0 1 0 16 0 a8 8 0 1 0 -16 0z"></path><path d="M-8 0 a8 8 0 1 0 16 0 a8 8 0 1 0 -16 0zM-8 20 a8 8 0 1 0 16 0 a8 8 0 1 0 -16 0zM-8 -20 a8 8 0 1 0 16 0 a8 8 0 1 0 -16 0zM-8 40 a8 8 0 1 0 16 0 a8 8 0 1 0 -16 0zM-8 -40 a8 8 0 1 0 16 0 a8 8 0 1 0 -16 0zM-8 60 a8 8 0 1 0 16 0 a8 8 0 1 0 -16 0zM-8 -60 a8 8 0 1 0 16 0 a8 8 0 1 0 -16 0zM-8 80 a8 8 0 1 0 16 0 a8 8 0 1 0 -16 0zM-8 -80 a8 8 0 1 0 16 0 a8 8 0 1 0 -16 0zM-8 100 a8 8 0 1 0 16 0 a8 8 0 1 0 -16 0zM-8 -100 a8 8 0 1 0 16 0 a8 8 0 1 0 -16 0zM-8 120 a8 8 0 1 0 16 0 a8 8 0 1 0 -16 0zM-8 -120 a8 8 0 1 0 16 0 a8 8 0 1 0 -16 0zM-8 140 a8 8 0 1 0 16 0 a8 8 0 1 0 -16 0zM-8 -140 a8 8 0 1 0 16 0 a8 8 0 1 0 -16 0z"></path></defs></svg>