<svg xmlns="http://www.w3.org/2000/svg" version="1.1" xmlns:xlink="http://www.w3.org/1999/xlink" xmlns:svgjs="http://svgjs.dev/svgjs" width="1440" height="560" preserveAspectRatio="none" viewBox="0 0 1440 560"><g mask="url(&quot;#SvgjsMask1162&quot;)" fill="none"><rect width="1440" height="560" x="0" y="0" fill="url(&quot;#SvgjsLinearGradient1163&quot;)"></rect><path d="M939.33 364.47 a102.72 102.72 0 1 0 205.44 0 a102.72 102.72 0 1 0 -205.44 0z" fill="rgba(174, 0, 82, 0.59)" class="triangle-float1"></path><path d="M483.1 78.96 a117.08 117.08 0 1 0 234.16 0 a117.08 117.08 0 1 0 -234.16 0z" fill="rgba(174, 0, 82, 0.59)" class="triangle-float2"></path><path d="M1261.84 339.94 a97.3 97.3 0 1 0 194.6 0 a97.3 97.3 0 1 0 -194.6 0z" fill="rgba(174, 0, 82, 0.59)" class="triangle-float3"></path><path d="M-108.24 329.35 a129.1 129.1 0 1 0 258.2 0 a129.1 129.1 0 1 0 -258.2 0z" fill="rgba(174, 0, 82, 0.59)" class="triangle-float1"></path><path d="M-131.44 516.53 a181.88 181.88 0 1 0 363.76 0 a181.88 181.88 0 1 0 -363.76 0z" fill="rgba(174, 0, 82, 0.59)" class="triangle-float1"></path><path d="M902.71 82.01 a110.3 110.3 0 1 0 220.6 0 a110.3 110.3 0 1 0 -220.6 0z" fill="rgba(174, 0, 82, 0.59)" class="triangle-float1"></path><path d="M336.56 420.27 a97.28 97.28 0 1 0 194.56 0 a97.28 97.28 0 1 0 -194.56 0z" fill="rgba(174, 0, 82, 0.59)" class="triangle-float3"></path><path d="M-45.99 351.92 a153.34 153.34 0 1 0 306.68 0 a153.34 153.34 0 1 0 -306.68 0z" fill="rgba(174, 0, 82, 0.59)" class="triangle-float1"></path><path d="M997.04 19.28 a93.93 93.93 0 1 0 187.86 0 a93.93 93.93 0 1 0 -187.86 0z" fill="rgba(174, 0, 82, 0.59)" class="triangle-float1"></path><path d="M513.46 30.99 a98.37 98.37 0 1 0 196.74 0 a98.37 98.37 0 1 0 -196.74 0z" fill="rgba(174, 0, 82, 0.59)" class="triangle-float3"></path><path d="M186.01 294.11 a93.5 93.5 0 1 0 187 0 a93.5 93.5 0 1 0 -187 0z" fill="rgba(174, 0, 82, 0.59)" class="triangle-float3"></path><path d="M451.79 381.23 a140.56 140.56 0 1 0 281.12 0 a140.56 140.56 0 1 0 -281.12 0z" fill="rgba(174, 0, 82, 0.59)" class="triangle-float1"></path><path d="M776.78 559.4 a162.56 162.56 0 1 0 325.12 0 a162.56 162.56 0 1 0 -325.12 0z" fill="rgba(174, 0, 82, 0.59)" class="triangle-float1"></path></g><defs><mask id="SvgjsMask1162"><rect width="1440" height="560" fill="#ffffff"></rect></mask><linearGradient x1="50%" y1="0%" x2="50%" y2="100%" gradientUnits="userSpaceOnUse" id="SvgjsLinearGradient1163"><stop stop-color="rgba(0, 0, 0, 1)" offset="0.33"></stop><stop stop-color="rgba(0, 0, 0, 1)" offset="0.48"></stop><stop stop-color="rgba(0, 0, 0, 1)" offset="0.59"></stop><stop stop-color="rgba(0, 0, 0, 1)" offset="1"></stop><stop stop-color="rgba(174, 0, 82, 1)" offset="1"></stop><stop stop-color="rgba(216, 0, 102, 1)" offset="1"></stop><stop stop-color="rgba(158, 0, 0, 1)" offset="1"></stop></linearGradient><style>
                @keyframes float1 {
                    0%{transform: translate(0, 0)}
                    50%{transform: translate(-10px, 0)}
                    100%{transform: translate(0, 0)}
                }

                .triangle-float1 {
                    animation: float1 5s infinite;
                }

                @keyframes float2 {
                    0%{transform: translate(0, 0)}
                    50%{transform: translate(-5px, -5px)}
                    100%{transform: translate(0, 0)}
                }

                .triangle-float2 {
                    animation: float2 4s infinite;
                }

                @keyframes float3 {
                    0%{transform: translate(0, 0)}
                    50%{transform: translate(0, -10px)}
                    100%{transform: translate(0, 0)}
                }

                .triangle-float3 {
                    animation: float3 6s infinite;
                }
            </style></defs></svg>